# xmcd
#
# Track frame offsets:
#	150
#	23515
#	44197
#
# Disc length: 872 seconds
#
# Revision: 1
# Processed by: cddbd v1.5PL3 Copyright (c) Steve Scherf et al.
# Submitted via: CDex 1.50Beta5
#
DISCID=1f036603
DTITLE=SHUUBI - 愛の詞
DYEAR=1900
DGENRE=Pop
TTITLE0=愛の詞
TTITLE1=アタリマエ
TTITLE2=幸せの瞬間(LIVE)
EXTD=
EXTT0=
EXTT1=
EXTT2=
PLAYORDER=
